Land_normalized_Motion_pl06
version=1
nRows=10
nColumns=43
inDegrees=yes
endheader
time		pelvis_tilt		pelvis_list		pelvis_rotation		pelvis_tx		pelvis_ty		pelvis_tz		hip_flexion_r		hip_adduction_r		hip_rotation_r		knee_angle_r		ankle_angle_r		subtalar_angle_r		mtp_angle_r		hip_flexion_l		hip_adduction_l		hip_rotation_l		knee_angle_l		ankle_angle_l		subtalar_angle_l		mtp_angle_l		lumbar_extension		lumbar_bending		lumbar_rotation		neck_flexion		neck_lateral_bending		neck_rotation		arm_flex_r		arm_add_r		arm_rot_r		elbow_flex_r		pro_sup_r		wrist_flex_r		wrist_dev_r		hand_finger_flex_r		arm_flex_l		arm_add_l		arm_rot_l		elbow_flex_l		pro_sup_l		wrist_flex_l		wrist_dev_l		hand_finger_flex_l		
0.988333		-1.729180		11.364420		87.306028		-0.001700		0.468751		0.461580		88.020048		-0.110677		5.440545		-136.468652		19.395081		-0.794272		14.635800		85.404361		-5.276280		2.927432		-135.254267		18.333544		16.205019		32.432280		-70.491321		-0.377475		2.725173		29.403895		-0.800255		-3.022617		53.537746		-30.854078		-3.809423		93.067604		98.939901		-2.732904		-21.652941		-1.244589		46.514483		-27.368468		0.758498		82.053544		122.682402		-41.886237		-12.442122		-0.986673		
0.991490		-1.759179		11.196744		87.400247		-0.001991		0.465745		0.460515		88.399186		-0.162322		5.580687		-136.849800		19.754683		-0.614944		14.669737		85.878661		-5.286786		2.924309		-135.683969		18.555518		16.340532		32.377041		-70.683115		-0.313989		2.674514		29.701495		-0.850337		-3.083208		54.579998		-30.982303		-3.330715		93.280549		98.907401		-2.622975		-21.619274		-1.219667		47.401944		-27.221515		0.708071		82.309100		122.923647		-41.743624		-12.481562		-0.809363		
0.994646		-1.758901		10.986386		87.555127		-0.002620		0.462647		0.459335		88.804529		-0.325095		5.794929		-137.250606		20.375266		0.142852		14.687511		86.407314		-5.200878		2.984214		-136.127141		18.886234		16.749683		32.101979		-70.836183		-0.107133		2.563696		30.000537		-1.133577		-3.066488		55.649767		-31.134264		-2.663046		93.564907		98.664462		-2.628403		-21.485896		-1.265821		47.968594		-27.052286		0.238658		82.832420		123.621428		-41.462146		-12.375176		-0.288792		
0.997803		-1.770090		10.894693		87.636596		-0.002816		0.459970		0.458337		89.112748		-0.336232		5.910006		-137.620384		20.579093		0.274195		14.691189		86.792893		-5.218537		3.005612		-136.539954		19.002638		16.859021		32.015457		-71.073007		-0.066826		2.521494		30.205701		-1.038139		-3.061127		56.615490		-31.106900		-2.316836		93.695194		98.655314		-2.576675		-21.434230		-1.260585		48.837406		-26.885532		0.215580		83.016640		123.826080		-41.288013		-12.315160		-0.126161		
1.000960		-1.805296		10.819526		87.725026		-0.003023		0.457471		0.457373		89.399278		-0.389714		6.016673		-137.974059		20.793610		0.342837		14.703526		87.146686		-5.251816		3.005877		-136.913935		19.116970		16.999207		31.960473		-71.344192		-0.027936		2.481139		30.429898		-0.984771		-3.063653		57.566550		-31.237350		-1.936845		93.881789		98.724118		-2.472515		-21.406618		-1.226182		49.669350		-26.776387		0.273235		83.248974		123.973888		-41.133807		-12.267559		-0.021403		
1.004116		-1.835707		10.774271		87.832091		-0.003275		0.455110		0.456388		89.663116		-0.495180		6.117003		-138.332417		20.995081		0.461546		14.717471		87.464396		-5.269023		3.017906		-137.275616		19.217066		17.200524		31.905851		-71.638843		0.039848		2.433595		30.664833		-0.972023		-3.072221		58.480946		-31.336914		-1.577760		94.069154		98.799552		-2.394381		-21.372709		-1.200092		50.452817		-26.659419		0.308019		83.485665		124.098860		-40.998251		-12.185913		0.072089		
1.007273		-1.864785		10.757651		87.958145		-0.003532		0.452903		0.455421		89.907846		-0.643223		6.198729		-138.693449		21.161872		0.598605		14.731706		87.754280		-5.275505		3.042639		-137.621208		19.285953		17.445289		31.856884		-71.956146		0.125930		2.376231		30.877998		-0.956575		-3.087558		59.369602		-31.405825		-1.238858		94.243387		98.879416		-2.341009		-21.333112		-1.182821		51.207681		-26.553575		0.352743		83.710204		124.190526		-40.887397		-12.089152		0.149892		
1.010429		-1.891884		10.759404		88.100604		-0.003804		0.450849		0.454483		90.136880		-0.822710		6.257410		-139.050859		21.292140		0.717569		14.745392		88.020180		-5.268541		3.078386		-137.944591		19.321952		17.723466		31.819274		-72.282051		0.228907		2.309709		31.055502		-0.929066		-3.111709		60.229783		-31.436552		-0.912653		94.393098		98.956681		-2.311750		-21.291073		-1.177385		51.942036		-26.463498		0.422721		83.905150		124.234832		-40.811256		-11.990917		0.208778		
1.013586		-1.914209		10.768236		88.235586		-0.004039		0.448871		0.453532		90.353552		-0.986754		6.295660		-139.402773		21.386389		0.787494		14.756376		88.272662		-5.275322		3.118508		-138.254985		19.346461		17.964307		31.798086		-72.609777		0.328221		2.248177		31.133486		-0.899641		-3.135507		61.015986		-31.406328		-0.674939		94.571782		99.007052		-2.309658		-21.276312		-1.185760		52.625296		-26.385041		0.482104		84.094650		124.240720		-40.779501		-11.924919		0.242949		
1.016742		-1.907344		10.824587		88.479944		-0.004544		0.447103		0.452637		90.501594		-1.298168		6.298806		-139.757271		21.478931		0.844720		14.753366		88.473141		-5.137215		3.243752		-138.535208		19.367615		18.532630		31.772554		-72.980679		0.574488		2.153250		31.219267		-0.932334		-3.170412		61.895703		-31.416348		-0.242043		94.682357		99.057656		-2.389038		-21.215980		-1.253343		53.288564		-26.405639		0.646417		84.281521		124.093085		-40.875236		-11.779332		0.279872		
